<?xml version="1.0" encoding="UTF-8"?>
<svg width="44" height="44" viewBox="0 0 44 44" fill="none" xmlns="http://www.w3.org/2000/svg">
  <defs>
    <linearGradient id="badgeGradient" x1="5" y1="6" x2="39" y2="38" gradientUnits="userSpaceOnUse">
      <stop offset="0%" stop-color="#906CFF"/>
      <stop offset="50%" stop-color="#6A5BFF"/>
      <stop offset="100%" stop-color="#FF7AC7"/>
    </linearGradient>
    <linearGradient id="quillGradient" x1="11" y1="10" x2="34" y2="34" gradientUnits="userSpaceOnUse">
      <stop offset="0%" stop-color="#FFFFFF" stop-opacity="0.95"/>
      <stop offset="100%" stop-color="#E0D9FF" stop-opacity="0.85"/>
    </linearGradient>
    <filter id="outerGlow" x="-30%" y="-30%" width="160%" height="160%">
      <feGaussianBlur stdDeviation="3" result="glow"/>
      <feMerge>
        <feMergeNode in="glow"/>
        <feMergeNode in="SourceGraphic"/>
      </feMerge>
    </filter>
  </defs>

  <rect x="3" y="3" width="38" height="38" rx="14" fill="url(#badgeGradient)" filter="url(#outerGlow)"/>
  <rect x="4.8" y="4.8" width="34.4" height="34.4" rx="12.5" stroke="rgba(255,255,255,0.2)" stroke-width="1.4" fill="none"/>

  <path fill-rule="evenodd" clip-rule="evenodd" fill="url(#quillGradient)" d="M31.8 11.6c-2.9 2.6-6 4.5-9.1 5.5-.3.1-.6-.2-.5-.5.6-2.4 2.1-4.7 4.5-7.1.4-.4.4-1.1 0-1.5-.4-.4-1.1-.4-1.5 0-3.5 3.4-5.4 6.8-6.1 10.2-2.8 1.1-5.5 2.8-7.9 5-.5.5-.5 1.3 0 1.8.5.5 1.3.5 1.8 0 1.7-1.6 3.5-2.9 5.2-3.9.2 2 .8 4 2.1 6 .4.6 1.2.7 1.7.3.6-.4.7-1.2.3-1.7-1-1.4-1.6-2.8-1.9-4.2 4.1-.5 8.4-2.6 12.1-6.1.5-.5.5-1.3 0-1.8-.4-.3-1.1-.3-1.6.1z"/>
  <circle cx="29.7" cy="9.9" r="2.1" fill="#FFFFFF" fill-opacity="0.94"/>
</svg>